<svg width="220" height="64" xmlns="http://www.w3.org/2000/svg">
 <!-- Created with Method Draw - http://github.com/duopixel/Method-Draw/ -->

 <g>
  <title>background</title>
  <rect fill="none" id="canvas_background" height="66" width="222" y="-1" x="-1"/>
  <g display="none" overflow="visible" y="0" x="0" height="100%" width="100%" id="canvasGrid">
   <rect fill="url(#gridpattern)" stroke-width="0" y="0" x="0" height="100%" width="100%"/>
  </g>
 </g>
 <g>
  <title>Layer 1</title>
  <!-- Generator: Sketch 44.1 (41455) - http://www.bohemiancoding.com/sketch -->
  <desc transform="matrix(2.2443855306620573,0,0,2.2443855306620573,0,0) ">Created with Sketch.</desc>

  <!-- Generator: Sketch 44.1 (41455) - http://www.bohemiancoding.com/sketch -->
  <desc transform="matrix(4.479158057140239,0,0,4.479158057140239,0,0) ">Created with Sketch.</desc>

  <!-- Generator: Sketch 44.1 (41455) - http://www.bohemiancoding.com/sketch -->
  <desc transform="matrix(0.0686378131648846,0,0,0.0686378131648846,0,0) ">Created with Sketch.</desc>

  <g stroke="null" id="svg_68">
   <g transform="matrix(1.218439780933277,0,0,1.218439780933277,-1862.012778449054,-540.0595397161426) " fill-rule="evenodd" fill="none" id="svg_53">
    <g stroke="null" id="svg_54">
     <g stroke="null" id="svg_55">
      <g stroke="null" id="svg_62">
       <path stroke="null" fill="#999999" id="svg_66" d="m1681.827134,480.820977c1.026601,0 1.854485,-0.827901 1.854485,-1.854505c0,-1.026604 -0.827884,-1.854513 -1.854485,-1.854513c-1.0211,0 -1.848984,0.827909 -1.848984,1.854512c0,1.026604 0.827884,1.854506 1.848984,1.854506m-4.2651,-1.854506c0,-2.360918 1.91662,-4.266479 4.266462,-4.266479c2.358171,0 4.277516,1.905566 4.277516,4.26648c0,2.363668 -1.919345,4.266473 -4.277516,4.266472c-2.351255,0 -4.266462,-1.902805 -4.266462,-4.266473"/>
       <path stroke="null" fill="#999999" id="svg_65" d="m1655.071939,480.738182c1.026602,0.000001 1.854536,-0.82791 1.854536,-1.854514c0,-1.026604 -0.827934,-1.854508 -1.854536,-1.854508c-1.02105,0 -1.854485,0.827904 -1.854485,1.854507c0,1.026605 0.832022,1.854515 1.854485,1.854515m-4.271964,-1.854515c0,-2.363669 1.922122,-4.266473 4.271964,-4.266473c2.358171,0.000005 4.272014,1.902809 4.272014,4.266475c0,2.360917 -1.913843,4.26648 -4.272014,4.26648c-2.349842,-0.000001 -4.271964,-1.905565 -4.271964,-4.266482"/>
       <path stroke="null" fill="#FFD400" id="svg_64" d="m1630.752848,453.456916l16.282534,0.081012l0.018978,-0.001918l-0.00005,0l0.00005,-0.000051l0,0.000051l21.933008,0.000656c1.480065,0.02869 3.010251,0.148021 4.40032,0.700985c2.876949,1.608256 4.787814,4.339464 5.068251,7.6305c0.738695,-0.001242 1.203616,0.000015 1.943825,0.000015c0.351858,0 1.037908,0.313689 1.338787,0.686807l4.154509,6.007562l2.180198,0.727186c0.891532,0.32702 1.538414,1.298917 1.538716,2.202225l0.345701,2.532793l0.465274,0c0.416718,0.006314 0.50944,0.441485 0.538715,0.772063l-0.000454,1.750907c0.000252,0.768561 -0.571322,1.390872 -1.349538,1.390866l-2.285387,0.000061c-0.471079,-2.726842 -2.820366,-4.434901 -5.490117,-4.569329c-2.723858,0.043559 -4.9353,1.923347 -5.475933,4.569309l-15.862787,0.00002c-0.453514,-2.717237 -2.746976,-4.435077 -5.416121,-4.569329c-2.733802,0.041298 -4.876447,1.934432 -5.415767,4.569309l-1.873212,0.00002l0,-0.000051l-4.060424,0c-0.762822,-0.000015 -1.390675,-0.622325 -1.390675,-1.390901l-0.000202,-3.182143l1.164195,0l0,-8.400681l-8.294381,-1.887849l8.294381,0.041289l0,-2.227442l-10.311193,-2.346865l10.311193,0.051282l0,-1.415054c-0.004593,-0.127816 -0.001766,-0.027281 0.00424,-0.301686l0,-0.518172l-12.756634,-2.903447l0,0zm48.782287,9.933593l-6.452262,0l0.67974,4.19287c0.000101,0.558602 0.62856,1.011434 1.403748,1.011449l9.062402,-0.00004l-2.83561,-4.192769c-0.332324,-0.457698 -0.851303,-1.01145 -1.858018,-1.011424l0,-0.000086l0,0z"/>
       <path stroke="null" fill="#DA2B2B" id="svg_63" d="m1653.565223,469.972884c-3.99082,0 -7.395581,-3.235206 -7.604747,-7.226037c-0.209116,-3.990825 2.856506,-7.226032 6.847377,-7.226032c3.99082,0 7.395581,3.235207 7.604697,7.226032c0.209166,3.990831 -2.856506,7.226037 -6.847327,7.226037l0,0z"/>
      </g>
      <polygon stroke="null" points="1545.5947265625,476.9251646697521 1545.5947265625,478.62905260920525 1557.023681640625,478.62905260920525 1557.023681640625,476.6630491912365 1548.373291015625,476.6630491912365 1556.65673828125,466.5971617400646 1556.65673828125,465.0767759978771 1546.1190185546875,465.0767759978771 1546.1190185546875,467.04277941584587 1553.7733154296875,467.04277941584587 " fill="#ffffff" id="svg_61"/>
      <path stroke="null" fill="#FFFFFF" id="svg_60" d="m1560.248179,471.866079c0,-0.821353 0.109222,-1.550952 0.327666,-2.188809c0.218444,-0.637857 0.519898,-1.175229 0.904357,-1.612117c0.38446,-0.436887 0.834456,-0.768919 1.349982,-0.9961c0.515527,-0.227186 1.061637,-0.340774 1.638329,-0.340774c0.576692,0 1.122801,0.113588 1.638333,0.340774c0.515526,0.227181 0.965517,0.559213 1.349982,0.9961c0.384459,0.436888 0.685914,0.97426 0.904357,1.612117c0.218444,0.637857 0.327666,1.367462 0.327666,2.188809c0,0.821347 -0.109222,1.550951 -0.327666,2.188808c-0.218443,0.637852 -0.519898,1.170858 -0.904357,1.599009c-0.384465,0.42815 -0.834456,0.755816 -1.349982,0.982996c-0.515532,0.227181 -1.061641,0.340769 -1.638333,0.340769c-0.576692,0 -1.122802,-0.113588 -1.638329,-0.340769c-0.515526,-0.22718 -0.965522,-0.554846 -1.349982,-0.982996c-0.384459,-0.428151 -0.685913,-0.961157 -0.904357,-1.599009c-0.218444,-0.637857 -0.327666,-1.367461 -0.327666,-2.188808l0,0zm-2.359195,0c0,0.996105 0.139804,1.922303 0.419413,2.778603c0.279609,0.856301 0.699022,1.60338 1.25824,2.241237c0.559212,0.637857 1.249497,1.135904 2.070844,1.494152c0.821352,0.358248 1.765029,0.537374 2.831032,0.537374c1.083481,0 2.031529,-0.179126 2.844139,-0.537374c0.812615,-0.358248 1.498529,-0.856295 2.057742,-1.494152c0.559217,-0.637857 0.97863,-1.384936 1.258239,-2.241237c0.279609,-0.8563 0.419413,-1.782498 0.419413,-2.778603c0,-0.996105 -0.139804,-1.926674 -0.419413,-2.791712c-0.279609,-0.865038 -0.699022,-1.616488 -1.258239,-2.25434c-0.559213,-0.637857 -1.245127,-1.14028 -2.057742,-1.507266c-0.81261,-0.366985 -1.760658,-0.550475 -2.844139,-0.550475c-1.066003,0 -2.00968,0.18349 -2.831032,0.550475c-0.821347,0.366986 -1.511632,0.869409 -2.070844,1.507266c-0.559218,0.637852 -0.978631,1.389302 -1.25824,2.25434c-0.279609,0.865038 -0.419413,1.795607 -0.419413,2.791712l0,0z"/>
      <path stroke="null" fill="#FFFFFF" id="svg_59" d="m1573.09269,465.076833l0,18.71627l2.228128,0l0,-6.972726l0.052428,0c0.244655,0.401934 0.546109,0.738337 0.904357,1.009209c0.358248,0.270871 0.738342,0.484944 1.140276,0.642223c0.401939,0.157283 0.808244,0.270871 1.21892,0.340775c0.410671,0.069901 0.782027,0.104852 1.114064,0.104852c1.031054,0 1.935411,-0.183493 2.713072,-0.550478c0.777657,-0.366985 1.424251,-0.869409 1.939777,-1.507261c0.515532,-0.637857 0.899992,-1.384936 1.153384,-2.241236c0.253398,-0.856301 0.380094,-1.765025 0.380094,-2.726176c0,-0.961156 -0.131067,-1.86988 -0.393197,-2.726181c-0.262134,-0.856301 -0.650965,-1.612116 -1.166492,-2.267448c-0.515527,-0.655331 -1.162121,-1.175229 -1.939782,-1.559688c-0.777661,-0.38446 -1.690756,-0.576692 -2.739284,-0.576692c-0.943677,0 -1.808715,0.170387 -2.595114,0.51116c-0.786398,0.340769 -1.36309,0.886879 -1.730075,1.638329l-0.052428,0l0,-1.834932l-2.228128,0zm10.485309,6.658168c0,0.664074 -0.069902,1.310663 -0.209706,1.939783c-0.139805,0.629119 -0.366986,1.188337 -0.681548,1.677647c-0.314557,0.489316 -0.729599,0.882517 -1.245131,1.1796c-0.515527,0.297084 -1.15775,0.445625 -1.926674,0.445625c-0.768919,0 -1.424251,-0.144175 -1.965994,-0.432521c-0.541738,-0.288346 -0.982997,-0.668435 -1.323771,-1.140276c-0.340774,-0.471836 -0.589795,-1.017945 -0.747078,-1.638328c-0.157279,-0.620383 -0.235919,-1.262606 -0.235919,-1.926674c0,-0.62912 0.074274,-1.249497 0.222815,-1.861143c0.148542,-0.61164 0.388831,-1.15775 0.720863,-1.638328c0.332036,-0.480578 0.760187,-0.869409 1.284451,-1.166492c0.524264,-0.297083 1.162121,-0.445625 1.913566,-0.445625c0.716496,0 1.341249,0.139805 1.874251,0.419414c0.533001,0.279608 0.969888,0.655331 1.310662,1.127172c0.340774,0.471836 0.594166,1.009208 0.760187,1.612112c0.166016,0.602908 0.249026,1.21892 0.249026,1.848034l0,0z"/>
      <path stroke="null" fill="#FFFFFF" id="svg_58" d="m1588.742005,465.076823l-2.804815,13.552254l3.696069,0l1.520369,-7.208643c0.104851,-0.471841 0.257764,-0.93494 0.458733,-1.389302c0.200965,-0.454367 0.454362,-0.856301 0.760182,-1.205812c0.30582,-0.349511 0.672811,-0.633486 1.100956,-0.851929c0.42815,-0.218444 0.921837,-0.327666 1.481049,-0.327666c0.436893,0 0.843198,0.131062 1.218895,0.393197c0.375733,0.262134 0.563599,0.594166 0.563599,0.996105c0,0.192227 -0.030588,0.463099 -0.091712,0.81261c-0.061176,0.349511 -0.109227,0.62912 -0.144206,0.838826l-1.651426,7.942614l3.722296,0l1.677622,-7.942614c0.017515,-0.12233 0.048052,-0.28398 0.091763,-0.484949c0.043711,-0.200965 0.087371,-0.415042 0.131082,-0.642223c0.043661,-0.227181 0.08298,-0.449996 0.117959,-0.66844c0.034929,-0.218443 0.052393,-0.397567 0.052393,-0.537372c0,-2.429093 -1.319405,-3.643641 -3.958164,-3.643641c-1.957281,0 -3.538816,0.751445 -4.744622,2.254339l-0.052428,0l0.419413,-1.887354l-3.565007,0z"/>
      <path stroke="null" fill="#FFFFFF" id="svg_57" d="m1605.570946,473.15053c0,-0.576692 0.078639,-1.192704 0.235918,-1.848035c0.157278,-0.655336 0.393197,-1.262606 0.707754,-1.821823c0.314557,-0.559218 0.720827,-1.026688 1.21891,-1.40241c0.498032,-0.375723 1.087827,-0.563584 1.769385,-0.563584c0.996115,0 1.699478,0.270867 2.110189,0.81261c0.410661,0.541738 0.615992,1.266972 0.615992,2.1757c0,0.576692 -0.07864,1.197075 -0.235918,1.861143c-0.157279,0.664068 -0.397588,1.28008 -0.720878,1.848035c-0.323289,0.567955 -0.73395,1.039791 -1.232033,1.415513c-0.498032,0.375728 -1.09656,0.563589 -1.795582,0.563589c-0.436907,0 -0.821372,-0.083011 -1.153393,-0.249026c-0.332022,-0.166021 -0.611651,-0.388831 -0.838837,-0.66844c-0.227186,-0.279609 -0.397538,-0.602903 -0.511156,-0.969889c-0.113567,-0.36699 -0.170351,-0.75145 -0.170351,-1.153383l0,0zm-3.722296,0c0,1.939777 0.563599,3.394615 1.690746,4.364503c1.127147,0.969894 2.634418,1.454838 4.521812,1.454838c1.240715,0 2.346057,-0.218443 3.315976,-0.655331c0.969869,-0.436887 1.795582,-1.039791 2.47714,-1.808715c0.681557,-0.768924 1.201445,-1.673282 1.559663,-2.713072c0.358268,-1.039791 0.537403,-2.153855 0.537403,-3.342193c0,-0.978625 -0.152938,-1.826189 -0.458764,-2.542685c-0.305825,-0.716497 -0.738341,-1.310663 -1.297549,-1.782499c-0.559207,-0.471841 -1.227642,-0.825718 -2.005303,-1.061641c-0.777661,-0.235918 -1.629571,-0.353877 -2.555779,-0.353877c-1.205837,0 -2.289323,0.222815 -3.25046,0.668439c-0.961136,0.445625 -1.778117,1.052899 -2.450943,1.821819c-0.672825,0.768924 -1.188322,1.664544 -1.54659,2.686861c-0.358218,1.022316 -0.537352,2.110169 -0.537352,3.263553l0,0z"/>
      <polygon stroke="null" points="1631.2596435546875,478.62905260920525 1638.3372802734375,465.0767759978771 1634.4052734375,465.0767759978771 1630.0538330078125,474.5397581756115 1630.00146484375,474.5397581756115 1629.58203125,465.0767759978771 1625.807373046875,465.0767759978771 1621.639404296875,474.6184019744396 1621.5870361328125,474.6184019744396 1621.062744140625,465.0767759978771 1617.2618408203125,465.0767759978771 1618.7559814453125,478.62905260920525 1622.6617431640625,478.62905260920525 1626.8558349609375,469.1136412322521 1626.908203125,469.1136412322521 1627.380126953125,478.62905260920525 " fill="#FFFFFF" id="svg_56"/>
     </g>
    </g>
   </g>
  </g>
  <!-- Generator: Sketch 44.1 (41455) - http://www.bohemiancoding.com/sketch -->
  <desc transform="matrix(0.08039730358690633,0,0,0.08039730358690633,0,0) ">Created with Sketch.</desc>

 </g>
</svg>